<svg width="536" height="111" viewBox="0 0 536 111" fill="none" xmlns="http://www.w3.org/2000/svg">
<path d="M24.544 87.992H23.544V88.992H24.544V87.992ZM24.544 23.192V22.192H23.544V23.192H24.544ZM54.64 25.64L54.2404 26.5567L54.2544 26.5628L54.2686 26.5685L54.64 25.64ZM63.856 32.408L63.0653 33.0202L63.0653 33.0202L63.856 32.408ZM68.752 43.208L67.7769 43.4296L67.7799 43.4428L67.7832 43.4558L68.752 43.208ZM68.176 71.576L69.1151 71.9196L69.1151 71.9196L68.176 71.576ZM62.416 81.224L63.1231 81.9311L63.13 81.9242L63.1368 81.9171L62.416 81.224ZM1.936 4.18399V3.18399H0.936001V4.18399H1.936ZM1.936 107H0.936001V108H1.936V107ZM66.736 103.112L67.1464 104.024L67.1532 104.021L66.736 103.112ZM81.28 92.168L80.5196 91.5185L80.5118 91.5278L81.28 92.168ZM90.064 75.752L91.021 76.042L91.021 76.042L90.064 75.752ZM89.344 32.696L88.4041 33.0378L88.4088 33.0502L89.344 32.696ZM79.552 16.856L78.8368 17.555L78.8449 17.5631L79.552 16.856ZM64.72 7.352L64.3706 8.28899L64.3757 8.29087L64.72 7.352ZM25.544 87.992V23.192H23.544V87.992H25.544ZM24.544 24.192H40.672V22.192H24.544V24.192ZM40.672 24.192C46.1495 24.192 50.6594 24.9957 54.2404 26.5567L55.0396 24.7233C51.1326 23.0203 46.3305 22.192 40.672 22.192V24.192ZM54.2686 26.5685C57.96 28.045 60.881 30.1988 63.0653 33.0202L64.6467 31.7958C62.223 28.6652 59 26.307 55.0114 24.7115L54.2686 26.5685ZM63.0653 33.0202C65.2676 35.8648 66.8443 39.3263 67.7769 43.4296L69.7271 42.9864C68.7397 38.6417 67.0524 34.9032 64.6467 31.7958L63.0653 33.0202ZM67.7832 43.4558C68.8146 47.4876 69.336 52.0582 69.336 57.176H71.336C71.336 51.9257 70.8014 47.1844 69.7208 42.9602L67.7832 43.4558ZM69.336 57.176C69.336 62.7613 68.6252 67.4376 67.2369 71.2324L69.1151 71.9196C70.6068 67.8424 71.336 62.9187 71.336 57.176H69.336ZM67.2369 71.2324C65.8348 75.0649 63.9809 78.1537 61.6952 80.5309L63.1368 81.9171C65.6511 79.3023 67.6372 75.9591 69.1151 71.9196L67.2369 71.2324ZM61.7089 80.5169C59.4115 82.8143 56.8046 84.458 53.8829 85.4623L54.5331 87.3537C57.7554 86.246 60.6205 84.4337 63.1231 81.9311L61.7089 80.5169ZM53.8829 85.4623C50.916 86.4822 47.8579 86.992 44.704 86.992V88.992C48.0781 88.992 51.356 88.4458 54.5331 87.3537L53.8829 85.4623ZM44.704 86.992H24.544V88.992H44.704V86.992ZM0.936001 4.18399V107H2.936V4.18399H0.936001ZM1.936 108H46.288V106H1.936V108ZM46.288 108C54.2676 108 61.2297 106.686 67.1464 104.024L66.3256 102.2C60.7223 104.722 54.0524 106 46.288 106V108ZM67.1532 104.021C73.1345 101.275 78.1057 97.5392 82.0482 92.8082L80.5118 91.5278C76.7743 96.0128 72.0495 99.5727 66.3188 102.203L67.1532 104.021ZM82.0404 92.8175C86.074 88.0951 89.0647 82.4978 91.021 76.042L89.107 75.462C87.2233 81.6782 84.358 87.0248 80.5196 91.5185L82.0404 92.8175ZM91.021 76.042C92.973 69.6006 93.944 62.5896 93.944 55.016H91.944C91.944 62.4184 90.995 69.2314 89.107 75.462L91.021 76.042ZM93.944 55.016C93.944 46.3813 92.7316 38.8162 90.2792 32.3418L88.4088 33.0502C90.7564 39.2478 91.944 46.5627 91.944 55.016H93.944ZM90.2838 32.3543C87.9363 25.8987 84.599 20.4888 80.2591 16.1489L78.8449 17.5631C82.953 21.6712 86.1437 26.8213 88.4042 33.0377L90.2838 32.3543ZM80.2672 16.1571C76.0309 11.8223 70.9587 8.5744 65.0643 6.41312L64.3757 8.29087C70.0013 10.3536 74.8171 13.4417 78.8368 17.5549L80.2672 16.1571ZM65.0694 6.41502C59.2834 4.25752 53.0199 3.18399 46.288 3.18399V5.18399C52.8041 5.18399 58.8286 6.22246 64.3706 8.28898L65.0694 6.41502ZM46.288 3.18399H1.936V5.18399H46.288V3.18399ZM108.67 4.18399V3.18399H107.67V4.18399H108.67ZM108.67 107H107.67V108H108.67V107ZM186.718 107V108H187.718V107H186.718ZM186.718 87.992H187.718V86.992H186.718V87.992ZM131.278 87.992H130.278V88.992H131.278V87.992ZM131.278 62.792V61.792H130.278V62.792H131.278ZM181.102 62.792V63.792H182.102V62.792H181.102ZM181.102 45.224H182.102V44.224H181.102V45.224ZM131.278 45.224H130.278V46.224H131.278V45.224ZM131.278 23.192V22.192H130.278V23.192H131.278ZM185.566 23.192V24.192H186.566V23.192H185.566ZM185.566 4.18399H186.566V3.18399H185.566V4.18399ZM107.67 4.18399V107H109.67V4.18399H107.67ZM108.67 108H186.718V106H108.67V108ZM187.718 107V87.992H185.718V107H187.718ZM186.718 86.992H131.278V88.992H186.718V86.992ZM132.278 87.992V62.792H130.278V87.992H132.278ZM131.278 63.792H181.102V61.792H131.278V63.792ZM182.102 62.792V45.224H180.102V62.792H182.102ZM181.102 44.224H131.278V46.224H181.102V44.224ZM132.278 45.224V23.192H130.278V45.224H132.278ZM131.278 24.192H185.566V22.192H131.278V24.192ZM186.566 23.192V4.18399H184.566V23.192H186.566ZM185.566 3.18399H108.67V5.18399H185.566V3.18399ZM217.453 72.872H218.453V71.872H217.453V72.872ZM195.565 72.872V71.872H194.58L194.565 72.8568L195.565 72.872ZM199.021 89.288L198.134 89.7499L198.134 89.7499L199.021 89.288ZM208.669 100.664L208.075 101.469L208.085 101.475L208.669 100.664ZM222.781 107.144L223.04 106.178L223.028 106.175L222.781 107.144ZM257.773 106.856L257.483 105.899L257.478 105.901L257.773 106.856ZM271.165 100.088L271.795 100.865L271.798 100.863L271.165 100.088ZM279.373 89.576L278.462 89.1638L278.462 89.1638L279.373 89.576ZM278.365 62.36L277.524 62.8997L277.532 62.9123L277.54 62.9247L278.365 62.36ZM269.725 53.432L270.275 52.5963L270.275 52.5963L269.725 53.432ZM259.501 48.68L259.202 49.634L259.218 49.639L259.234 49.6435L259.501 48.68ZM251.581 46.52L251.335 47.4893L251.36 47.4956L251.385 47.5006L251.581 46.52ZM235.885 42.488L235.626 43.4539L235.632 43.4554L235.885 42.488ZM226.525 39.32L226.094 40.2221L226.101 40.2257L226.109 40.2291L226.525 39.32ZM222.061 35.864L221.21 36.3881L221.21 36.3881L222.061 35.864ZM222.349 25.496L221.517 24.9413L221.517 24.9413L222.349 25.496ZM225.949 21.896L225.419 21.048L225.407 21.0558L225.395 21.0639L225.949 21.896ZM244.093 20.024L243.889 21.003L243.897 21.0046L244.093 20.024ZM250.429 22.472L249.895 23.3175L249.895 23.3175L250.429 22.472ZM254.749 27.224L253.864 27.688L253.872 27.7042L253.881 27.7201L254.749 27.224ZM256.765 34.856L255.767 34.9184L255.826 35.856H256.765V34.856ZM278.653 34.856V35.856H279.653V34.856H278.653ZM275.197 19.736L274.311 20.1993L274.318 20.2114L274.324 20.2234L275.197 19.736ZM266.125 9.368L265.552 10.1872L265.552 10.1872L266.125 9.368ZM252.877 3.60799L252.63 4.57701L252.641 4.57982L252.653 4.58238L252.877 3.60799ZM223.645 3.60799L223.384 2.64277L223.384 2.64277L223.645 3.60799ZM211.261 9.368L210.682 8.55281L210.682 8.55281L211.261 9.368ZM202.333 19.16L201.47 18.6548L201.466 18.6615L202.333 19.16ZM201.613 44.936L200.724 45.3933L200.732 45.4087L200.74 45.4238L201.613 44.936ZM208.669 53.144L208.061 53.9376L208.061 53.9376L208.669 53.144ZM218.461 58.616L218.094 59.5462L218.105 59.5504L218.116 59.5543L218.461 58.616ZM229.693 62.072L229.965 61.1095L229.95 61.1055L229.936 61.1019L229.693 62.072ZM240.781 64.952L241.012 63.9789L241.012 63.9789L240.781 64.952ZM250.573 67.976L250.945 67.0475L250.945 67.0475L250.573 67.976ZM257.485 72.296L256.778 73.0031L256.788 73.0127L256.798 73.022L257.485 72.296ZM258.205 85.544L258.977 86.1797L258.986 86.1689L258.995 86.1579L258.205 85.544ZM253.165 89.432L252.735 88.5291L252.735 88.5291L253.165 89.432ZM246.685 91.448L246.809 92.4403L246.83 92.4377L246.85 92.4344L246.685 91.448ZM231.565 90.872L231.299 91.836L231.315 91.8403L231.331 91.8441L231.565 90.872ZM224.221 87.56L223.615 88.3554L223.636 88.3714L223.658 88.3862L224.221 87.56ZM219.325 81.656L220.213 81.1946L220.213 81.1946L219.325 81.656ZM217.453 71.872H195.565V73.872H217.453V71.872ZM194.565 72.8568C194.468 79.3227 195.643 84.9657 198.134 89.7499L199.908 88.8261C197.6 84.3943 196.471 79.0933 196.565 72.8871L194.565 72.8568ZM198.134 89.7499C200.602 94.4879 203.916 98.3988 208.076 101.469L209.263 99.8594C205.358 96.9772 202.241 93.3041 199.908 88.8261L198.134 89.7499ZM208.085 101.475C212.321 104.53 217.142 106.74 222.535 108.113L223.028 106.175C217.861 104.86 213.273 102.75 209.254 99.8528L208.085 101.475ZM222.523 108.11C227.985 109.573 233.592 110.304 239.341 110.304V108.304C233.763 108.304 228.33 107.595 223.04 106.178L222.523 108.11ZM239.341 110.304C246.424 110.304 252.671 109.48 258.069 107.811L257.478 105.901C252.315 107.496 246.275 108.304 239.341 108.304V110.304ZM258.064 107.813C263.536 106.152 268.123 103.842 271.795 100.865L270.536 99.3112C267.104 102.094 262.763 104.296 257.483 105.899L258.064 107.813ZM271.798 100.863C275.557 97.7955 278.393 94.1699 280.284 89.9882L278.462 89.1638C276.706 93.0461 274.069 96.4285 270.533 99.3131L271.798 100.863ZM280.284 89.9882C282.171 85.8186 283.109 81.309 283.109 76.472H281.109C281.109 81.043 280.224 85.2694 278.462 89.1638L280.284 89.9882ZM283.109 76.472C283.109 70.571 281.83 65.6534 279.191 61.7953L277.54 62.9247C279.892 66.3626 281.109 70.853 281.109 76.472H283.109ZM279.207 61.8203C276.74 57.9708 273.764 54.8892 270.275 52.5963L269.176 54.2677C272.407 56.3908 275.191 59.2612 277.524 62.8997L279.207 61.8203ZM270.275 52.5963C266.838 50.3382 263.336 48.7074 259.769 47.7165L259.234 49.6435C262.579 50.5726 265.893 52.1098 269.176 54.2677L270.275 52.5963ZM259.801 47.726C256.429 46.6663 253.75 45.9339 251.777 45.5394L251.385 47.5006C253.253 47.8741 255.853 48.5817 259.202 49.634L259.801 47.726ZM251.827 45.5507C245.397 43.919 240.167 42.5757 236.139 41.5206L235.632 43.4554C239.667 44.5123 244.902 45.857 251.335 47.4893L251.827 45.5507ZM236.145 41.5222C232.234 40.4731 229.174 39.434 226.942 38.4109L226.109 40.2291C228.485 41.318 231.664 42.3909 235.626 43.4538L236.145 41.5222ZM226.957 38.4179C224.818 37.3951 223.533 36.3477 222.913 35.3399L221.21 36.3881C222.126 37.8763 223.816 39.1329 226.094 40.2221L226.957 38.4179ZM222.913 35.3399C222.272 34.2981 221.909 32.8658 221.909 30.968H219.909C219.909 33.1022 220.315 34.9339 221.21 36.3881L222.913 35.3399ZM221.909 30.968C221.909 28.9032 222.358 27.2865 223.181 26.0507L221.517 24.9413C220.421 26.5855 219.909 28.6168 219.909 30.968H221.909ZM223.181 26.0507C224.068 24.7205 225.174 23.6148 226.504 22.728L225.395 21.0639C223.845 22.0972 222.551 23.3914 221.517 24.9413L223.181 26.0507ZM226.479 22.744C227.913 21.848 229.483 21.2191 231.195 20.8585L230.783 18.9014C228.848 19.3089 227.058 20.024 225.419 21.048L226.479 22.744ZM231.195 20.8585C232.953 20.4885 234.708 20.304 236.461 20.304V18.304C234.567 18.304 232.674 18.5035 230.783 18.9014L231.195 20.8585ZM236.461 20.304C239.189 20.304 241.663 20.5392 243.889 21.003L244.297 19.045C241.915 18.5488 239.302 18.304 236.461 18.304V20.304ZM243.897 21.0046C246.193 21.4638 248.188 22.239 249.895 23.3175L250.963 21.6265C249.023 20.401 246.793 19.5442 244.289 19.0434L243.897 21.0046ZM249.895 23.3175C251.562 24.3703 252.885 25.819 253.864 27.688L255.635 26.76C254.502 24.597 252.944 22.8777 250.963 21.6265L249.895 23.3175ZM253.881 27.7201C254.937 29.5674 255.582 31.9514 255.767 34.9184L257.763 34.7936C257.565 31.6165 256.866 28.9126 255.618 26.7279L253.881 27.7201ZM256.765 35.856H278.653V33.856H256.765V35.856ZM279.653 34.856C279.653 28.7768 278.477 23.5594 276.071 19.2486L274.324 20.2234C276.526 24.1686 277.653 29.0312 277.653 34.856H279.653ZM276.084 19.2727C273.803 14.9092 270.672 11.3302 266.699 8.54876L265.552 10.1872C269.258 12.7817 272.176 16.1148 274.311 20.1993L276.084 19.2727ZM266.699 8.54876C262.744 5.78057 258.208 3.81177 253.102 2.6336L252.653 4.58238C257.531 5.70822 261.826 7.57942 265.552 10.1872L266.699 8.54876ZM253.124 2.63898C248.143 1.36913 242.923 0.735999 237.469 0.735999V2.736C242.767 2.736 247.82 3.35086 252.63 4.57701L253.124 2.63898ZM237.469 0.735999C232.77 0.735999 228.074 1.37252 223.384 2.64277L223.907 4.57322C228.433 3.34747 232.953 2.736 237.469 2.736V0.735999ZM223.384 2.64277C218.67 3.91955 214.433 5.88798 210.682 8.55281L211.841 10.1832C215.386 7.66401 219.405 5.79243 223.907 4.57322L223.384 2.64277ZM210.682 8.55281C206.916 11.2285 203.845 14.599 201.47 18.6548L203.196 19.6652C205.43 15.849 208.31 12.6915 211.841 10.1832L210.682 8.55281ZM201.466 18.6615C199.156 22.6799 198.021 27.4187 198.021 32.84H200.021C200.021 27.7013 201.095 23.3201 203.2 19.6585L201.466 18.6615ZM198.021 32.84C198.021 37.6649 198.908 41.8614 200.724 45.3933L202.503 44.4786C200.863 41.2906 200.021 37.4231 200.021 32.84H198.021ZM200.74 45.4238C202.629 48.803 205.07 51.6442 208.061 53.9376L209.278 52.3504C206.509 50.2278 204.246 47.597 202.486 44.4482L200.74 45.4238ZM208.061 53.9376C211.02 56.2065 214.367 58.0748 218.094 59.5462L218.829 57.6858C215.26 56.2772 212.078 54.4975 209.278 52.3504L208.061 53.9376ZM218.116 59.5543C221.798 60.911 225.577 62.0736 229.451 63.0421L229.936 61.1019C226.13 60.1504 222.421 59.009 218.807 57.6777L218.116 59.5543ZM229.422 63.0344C233.179 64.0941 236.889 65.0577 240.551 65.9251L241.012 63.9789C237.378 63.1183 233.696 62.1619 229.965 61.1095L229.422 63.0344ZM240.551 65.9251C244.16 66.78 247.376 67.7741 250.202 68.9045L250.945 67.0475C248.011 65.8739 244.698 64.852 241.012 63.9789L240.551 65.9251ZM250.202 68.9045C252.989 70.0192 255.168 71.3929 256.778 73.0031L258.192 71.5889C256.347 69.7431 253.918 68.2368 250.945 67.0475L250.202 68.9045ZM256.798 73.022C258.4 74.5397 259.221 76.5218 259.221 79.064H261.221C261.221 76.0382 260.219 73.5083 258.173 71.57L256.798 73.022ZM259.221 79.064C259.221 81.4761 258.6 83.4084 257.416 84.9301L258.995 86.1579C260.499 84.2236 261.221 81.8359 261.221 79.064H259.221ZM257.433 84.9083C256.188 86.421 254.627 87.6285 252.735 88.5291L253.595 90.3349C255.736 89.3155 257.535 87.931 258.977 86.1797L257.433 84.9083ZM252.735 88.5291C250.807 89.4472 248.737 90.0922 246.521 90.4616L246.85 92.4344C249.241 92.0358 251.491 91.3368 253.595 90.3349L252.735 88.5291ZM246.561 90.4557C244.292 90.7393 242.174 90.88 240.205 90.88V92.88C242.269 92.88 244.47 92.7327 246.809 92.4403L246.561 90.4557ZM240.205 90.88C237.305 90.88 234.504 90.5527 231.8 89.8999L231.331 91.8441C234.195 92.5353 237.153 92.88 240.205 92.88V90.88ZM231.831 89.908C229.14 89.1655 226.795 88.1043 224.785 86.7338L223.658 88.3862C225.872 89.8957 228.423 91.0425 231.299 91.836L231.831 89.908ZM224.827 86.7646C222.936 85.3238 221.397 83.4729 220.213 81.1946L218.438 82.1174C219.749 84.6391 221.474 86.7242 223.615 88.3554L224.827 86.7646ZM220.213 81.1946C219.056 78.9712 218.453 76.2108 218.453 72.872H216.453C216.453 76.4452 217.098 79.5408 218.438 82.1174L220.213 81.1946ZM295.561 4.18399V3.18399H294.561V4.18399H295.561ZM295.561 107H294.561V108H295.561V107ZM318.169 107V108H319.169V107H318.169ZM318.169 4.18399H319.169V3.18399H318.169V4.18399ZM294.561 4.18399V107H296.561V4.18399H294.561ZM295.561 108H318.169V106H295.561V108ZM319.169 107V4.18399H317.169V107H319.169ZM318.169 3.18399H295.561V5.18399H318.169V3.18399ZM412.334 95.336L413.315 95.1422L412.89 92.9919L411.544 94.7221L412.334 95.336ZM414.638 107L413.657 107.194L413.816 108H414.638V107ZM429.038 107V108H430.038V107H429.038ZM429.038 51.416H430.038V50.416H429.038V51.416ZM385.838 51.416V50.416H384.838V51.416H385.838ZM385.838 68.264H384.838V69.264H385.838V68.264ZM408.59 68.264L409.585 68.3569L409.687 67.264H408.59V68.264ZM401.39 84.824L402.07 85.5568L402.071 85.5562L401.39 84.824ZM371.15 87.56L370.656 88.4297L370.665 88.4348L370.674 88.4397L371.15 87.56ZM362.51 79.64L361.681 80.2003L361.681 80.2003L362.51 79.64ZM357.614 68.696L356.64 68.9225L356.643 68.936L356.646 68.9494L357.614 68.696ZM357.614 42.92L356.644 42.6775L356.641 42.6879L356.639 42.6984L357.614 42.92ZM362.51 31.688L363.338 32.2484L363.345 32.2372L362.51 31.688ZM371.15 23.768L371.625 24.6477L371.634 24.6428L371.643 24.6377L371.15 23.768ZM398.078 25.064L397.478 25.864L397.478 25.864L398.078 25.064ZM405.854 38.024L404.88 38.2512L405.06 39.024H405.854V38.024ZM427.454 38.024V39.024H428.557L428.449 37.9261L427.454 38.024ZM422.702 22.472L421.835 22.9701L421.835 22.9701L422.702 22.472ZM412.766 11.096L412.15 11.8844L412.16 11.8914L412.766 11.096ZM399.374 4.18399L399.058 5.13268L399.069 5.13635L399.08 5.13977L399.374 4.18399ZM362.798 5.912L362.395 4.99646L362.39 4.99877L362.798 5.912ZM346.958 17.432L347.708 18.0936L347.708 18.0936L346.958 17.432ZM337.022 34.712L337.965 35.0448L337.966 35.0405L337.022 34.712ZM337.022 77.048L336.079 77.3808L336.08 77.3852L337.022 77.048ZM346.958 93.896L347.701 93.227L347.701 93.227L346.958 93.896ZM362.798 105.272L362.39 106.185L362.399 106.189L362.407 106.193L362.798 105.272ZM398.942 106.28L399.323 107.205L399.33 107.202L399.338 107.198L398.942 106.28ZM411.353 95.5298L413.657 107.194L415.619 106.806L413.315 95.1422L411.353 95.5298ZM414.638 108H429.038V106H414.638V108ZM430.038 107V51.416H428.038V107H430.038ZM429.038 50.416H385.838V52.416H429.038V50.416ZM384.838 51.416V68.264H386.838V51.416H384.838ZM385.838 69.264H408.59V67.264H385.838V69.264ZM407.594 68.1711C406.938 75.1977 404.611 80.462 400.709 84.0918L402.071 85.5562C406.425 81.506 408.897 75.7303 409.585 68.3569L407.594 68.1711ZM400.709 84.0912C396.92 87.6095 391.438 89.44 384.11 89.44V91.44C391.758 91.44 397.795 89.5265 402.07 85.5568L400.709 84.0912ZM384.11 89.44C379.145 89.44 374.998 88.5034 371.625 86.6803L370.674 88.4397C374.405 90.4566 378.898 91.44 384.11 91.44V89.44ZM371.643 86.6903C368.22 84.7474 365.457 82.2115 363.338 79.0797L361.681 80.2003C363.979 83.5965 366.975 86.3406 370.656 88.4297L371.643 86.6903ZM363.338 79.0797C361.197 75.9147 359.61 72.3716 358.581 68.4426L356.646 68.9494C357.729 73.0844 359.406 76.8373 361.681 80.2003L363.338 79.0797ZM358.588 68.4695C357.645 64.4172 357.174 60.2692 357.174 56.024H355.174C355.174 60.4188 355.662 64.7188 356.64 68.9225L358.588 68.4695ZM357.174 56.024C357.174 51.5835 357.646 47.2899 358.589 43.1416L356.639 42.6984C355.661 46.9981 355.174 51.4405 355.174 56.024H357.174ZM358.584 43.1625C359.615 39.0401 361.202 35.4059 363.338 32.2483L361.681 31.1277C359.401 34.4981 357.725 38.3519 356.644 42.6775L358.584 43.1625ZM363.345 32.2372C365.462 29.0161 368.218 26.4894 371.625 24.6477L370.674 22.8883C366.977 24.8866 363.973 27.6399 361.674 31.1388L363.345 32.2372ZM371.643 24.6377C375.012 22.7257 379.153 21.744 384.11 21.744V19.744C378.891 19.744 374.391 20.7783 370.656 22.8983L371.643 24.6377ZM384.11 21.744C389.397 21.744 393.835 23.1316 397.478 25.864L398.678 24.264C394.641 21.2364 389.766 19.744 384.11 19.744V21.744ZM397.478 25.864C401.089 28.5724 403.576 32.6652 404.88 38.2512L406.828 37.7968C405.443 31.8628 402.747 27.3156 398.678 24.264L397.478 25.864ZM405.854 39.024H427.454V37.024H405.854V39.024ZM428.449 37.9261C427.861 31.9476 426.24 26.6238 423.569 21.9739L421.835 22.9701C424.347 27.3442 425.895 32.3884 426.459 38.1219L428.449 37.9261ZM423.569 21.9739C420.912 17.3495 417.513 13.4555 413.372 10.3006L412.16 11.8914C416.083 14.8805 419.307 18.5705 421.835 22.9701L423.569 21.9739ZM413.381 10.3077C409.345 7.15736 404.771 4.79835 399.668 3.22821L399.08 5.13977C403.961 6.64164 408.315 8.89064 412.15 11.8843L413.381 10.3077ZM399.69 3.23531C394.69 1.56854 389.495 0.735999 384.11 0.735999V2.736C389.285 2.736 394.266 3.53546 399.058 5.13268L399.69 3.23531ZM384.11 0.735999C376.118 0.735999 368.875 2.1496 362.395 4.99648L363.2 6.82752C369.393 4.10639 376.357 2.736 384.11 2.736V0.735999ZM362.39 4.99877C356.026 7.83836 350.627 11.7619 346.208 16.7704L347.708 18.0936C351.928 13.31 357.09 9.55363 363.205 6.82523L362.39 4.99877ZM346.208 16.7704C341.796 21.7707 338.421 27.646 336.077 34.3835L337.966 35.0405C340.231 28.53 343.48 22.8852 347.708 18.0936L346.208 16.7704ZM336.079 34.3792C333.733 41.0251 332.566 48.243 332.566 56.024H334.566C334.566 48.445 335.702 41.4549 337.965 35.0448L336.079 34.3792ZM332.566 56.024C332.566 63.6161 333.734 70.7375 336.079 77.3808L337.965 76.7152C335.701 70.3025 334.566 63.4079 334.566 56.024H332.566ZM336.08 77.3852C338.426 83.9324 341.803 89.6628 346.214 94.565L347.701 93.227C343.473 88.5292 340.226 83.0276 337.963 76.7108L336.08 77.3852ZM346.214 94.565C350.633 99.475 356.03 103.348 362.39 106.185L363.205 104.359C357.085 101.628 351.922 97.917 347.701 93.227L346.214 94.565ZM362.407 106.193C368.883 108.94 376.123 110.304 384.11 110.304V108.304C376.353 108.304 369.384 106.98 363.188 104.351L362.407 106.193ZM384.11 110.304C389.24 110.304 394.313 109.267 399.323 107.205L398.561 105.355C393.778 107.325 388.963 108.304 384.11 108.304V110.304ZM399.338 107.198C404.42 105.006 409.011 101.236 413.123 95.9499L411.544 94.7221C407.592 99.8036 403.255 103.33 398.546 105.362L399.338 107.198ZM447.295 4.18399V3.18399H446.295V4.18399H447.295ZM447.295 107H446.295V108H447.295V107ZM468.463 107V108H469.463V107H468.463ZM468.463 38.168V37.168H467.463V38.168H468.463ZM468.751 38.168L469.601 37.6402L469.307 37.168H468.751V38.168ZM511.519 107L510.67 107.528L510.963 108H511.519V107ZM534.127 107V108H535.127V107H534.127ZM534.127 4.18399H535.127V3.18399H534.127V4.18399ZM512.959 4.18399V3.18399H511.959V4.18399H512.959ZM512.959 73.16V74.16H513.959V73.16H512.959ZM512.671 73.16L511.822 73.6882L512.116 74.16H512.671V73.16ZM469.759 4.18399L470.608 3.65575L470.315 3.18399H469.759V4.18399ZM446.295 4.18399V107H448.295V4.18399H446.295ZM447.295 108H468.463V106H447.295V108ZM469.463 107V38.168H467.463V107H469.463ZM468.463 39.168H468.751V37.168H468.463V39.168ZM467.902 38.6958L510.67 107.528L512.369 106.472L469.601 37.6402L467.902 38.6958ZM511.519 108H534.127V106H511.519V108ZM535.127 107V4.18399H533.127V107H535.127ZM534.127 3.18399H512.959V5.18399H534.127V3.18399ZM511.959 4.18399V73.16H513.959V4.18399H511.959ZM512.959 72.16H512.671V74.16H512.959V72.16ZM513.52 72.6318L470.608 3.65575L468.91 4.71224L511.822 73.6882L513.52 72.6318ZM469.759 3.18399H447.295V5.18399H469.759V3.18399Z" fill="#1F2429"/>
</svg>