<svg width="329" height="96" viewBox="0 0 329 96" fill="none" xmlns="http://www.w3.org/2000/svg">
<rect width="329" height="96" fill="white"/>
<path d="M156.27 22.5048C160.686 22.5048 164.526 23.5342 167.79 25.5931C171.102 27.6029 173.622 30.495 175.35 34.2695C177.126 37.995 178.014 42.4068 178.014 47.5048C178.014 52.6029 177.126 57.0391 175.35 60.8137C173.622 64.5391 171.102 67.4313 167.79 69.4901C164.526 71.4999 160.686 72.5048 156.27 72.5048C151.854 72.5048 148.014 71.4999 144.75 69.4901C141.486 67.4313 138.966 64.5391 137.19 60.8137C135.414 57.0391 134.526 52.6029 134.526 47.5048C134.526 42.4068 135.414 37.995 137.19 34.2695C138.966 30.495 141.486 27.6029 144.75 25.5931C148.014 23.5342 151.854 22.5048 156.27 22.5048ZM156.27 24.3431C152.286 24.3431 148.806 25.299 145.83 27.2107C142.854 29.0735 140.574 31.745 138.99 35.2254C137.406 38.7058 136.614 42.799 136.614 47.5048C136.614 52.2107 137.406 56.3039 138.99 59.7842C140.574 63.2646 142.854 65.9607 145.83 67.8725C148.806 69.7352 152.286 70.6666 156.27 70.6666C160.254 70.6666 163.734 69.7352 166.71 67.8725C169.686 65.9607 171.966 63.2646 173.55 59.7842C175.134 56.3039 175.926 52.2107 175.926 47.5048C175.926 42.799 175.134 38.7058 173.55 35.2254C171.966 31.745 169.686 29.0735 166.71 27.2107C163.734 25.299 160.254 24.3431 156.27 24.3431Z" fill="black"/>
<path d="M189.746 71.7695L203.858 50.0784H220.202V71.7695H222.218V23.2401H204.866C200.162 23.2401 196.466 24.4411 193.778 26.8431C191.042 29.196 189.674 32.4558 189.674 36.6225C189.674 40.299 190.73 43.2891 192.842 45.5931C194.906 47.897 197.81 49.3186 201.554 49.8578L187.442 71.7695H189.746ZM204.866 48.1666C200.69 48.1666 197.45 47.1617 195.146 45.1519C192.842 43.1421 191.69 40.299 191.69 36.6225C191.69 32.995 192.842 30.1764 195.146 28.1666C197.45 26.1078 200.69 25.0784 204.866 25.0784H220.202V48.1666H204.866Z" fill="black"/>
<path d="M248.489 22.5048C257.801 22.5048 263.633 26.2058 265.985 33.6078L264.329 34.9313C263.273 31.3039 261.425 28.6323 258.785 26.9166C256.145 25.2009 252.713 24.3431 248.489 24.3431C245.465 24.3431 242.801 24.8578 240.497 25.8872C238.241 26.8676 236.489 28.2156 235.241 29.9313C234.041 31.647 233.441 33.5833 233.441 35.7401C233.441 37.7499 233.945 39.4411 234.953 40.8137C235.961 42.1862 237.665 43.3627 240.065 44.3431C242.465 45.3235 245.777 46.1813 250.001 46.9166C254.129 47.6519 257.393 48.5833 259.793 49.7107C262.241 50.7891 264.017 52.1372 265.121 53.7548C266.225 55.3725 266.777 57.3823 266.777 59.7842C266.777 62.2352 266.033 64.4411 264.545 66.4019C263.105 68.3137 261.065 69.8088 258.425 70.8872C255.785 71.9656 252.761 72.5048 249.353 72.5048C244.265 72.5048 239.993 71.4509 236.537 69.3431C233.129 67.1862 230.945 64.0735 229.985 60.0048L231.785 58.7548C232.505 62.6274 234.449 65.5931 237.617 67.6519C240.785 69.6617 244.721 70.6666 249.425 70.6666C253.889 70.6666 257.561 69.7107 260.441 67.799C263.321 65.8382 264.761 63.1666 264.761 59.7842C264.761 56.8921 263.609 54.6127 261.305 52.946C259.001 51.2303 255.065 49.9068 249.497 48.9754C244.937 48.1911 241.337 47.2352 238.697 46.1078C236.105 44.9803 234.233 43.6078 233.081 41.9901C231.977 40.3235 231.425 38.2646 231.425 35.8137C231.425 33.4117 232.097 31.2058 233.441 29.196C234.833 27.1862 236.825 25.5686 239.417 24.3431C242.009 23.1176 245.033 22.5048 248.489 22.5048Z" fill="black"/>
<path d="M289.784 44.2695L279.56 54.8578V71.7695H277.544V23.2401H279.56V51.9901L307.208 23.2401H309.944L291.296 42.7254L310.592 71.7695H308.072L289.784 44.2695Z" fill="black"/>
<path d="M123.065 41.4019C123.065 35.5686 121.481 31.0833 118.313 27.946C115.145 24.8088 110.705 23.2401 104.993 23.2401C99.2811 23.2401 94.8411 24.8088 91.6731 27.946C88.5051 31.0833 86.9211 35.5686 86.9211 41.4019V72.5048H88.9371V41.696C88.9371 36.3529 90.3291 32.2352 93.1131 29.3431C95.8971 26.4999 99.8571 25.0784 104.993 25.0784C110.081 25.0784 114.017 26.5244 116.801 29.4166C119.633 32.3088 121.049 36.4019 121.049 41.696V72.5048H123.065V41.4019Z" fill="black"/>
<rect y="12.5048" width="70" height="70" fill="#EB5757"/>
<path d="M53 54.4407C53 60.2426 51.4223 64.7038 48.2669 67.8242C45.1116 70.9446 40.6892 72.5048 35 72.5048C29.3108 72.5048 24.8884 70.9446 21.7331 67.8242C18.5777 64.7038 17 60.2426 17 54.4407V23.5048H19.008V54.1481C19.008 59.4625 20.3944 63.5581 23.1673 66.4347C25.9402 69.2625 29.8845 70.6765 35 70.6765C40.0677 70.6765 43.988 69.2382 46.761 66.3615C49.5817 63.4849 50.992 59.4138 50.992 54.1481V23.5048H53V54.4407Z" fill="white"/>
</svg>
