<svg width="620" height="109" viewBox="0 0 620 109" fill="none" xmlns="http://www.w3.org/2000/svg">
<path d="M88.2 67.12V3.18399H65.592V67.12C65.592 74.8 64.056 80.464 60.984 84.112C57.912 87.664 52.344 89.44 44.28 89.44C39.672 89.44 35.976 88.816 33.192 87.568C30.504 86.224 28.392 84.544 26.856 82.528C25.32 80.416 24.312 78.016 23.832 75.328C23.352 72.64 23.112 69.904 23.112 67.12V3.18399H0.504V67.12C0.504 81.136 4.296 91.504 11.88 98.224C19.56 104.944 30.36 108.304 44.28 108.304C58.008 108.304 68.76 104.944 76.536 98.224C84.312 91.408 88.2 81.04 88.2 67.12ZM107.67 3.18399V106H128.838V37.168H129.126L171.894 106H194.502V3.18399H173.334V72.16H173.046L130.134 3.18399H107.67ZM232.549 55.024C232.549 50.512 233.029 46.144 233.989 41.92C235.045 37.696 236.677 33.952 238.885 30.688C241.093 27.328 243.973 24.688 247.525 22.768C251.077 20.752 255.397 19.744 260.485 19.744C265.573 19.744 269.893 20.752 273.445 22.768C276.997 24.688 279.877 27.328 282.085 30.688C284.293 33.952 285.877 37.696 286.837 41.92C287.893 46.144 288.421 50.512 288.421 55.024C288.421 59.344 287.893 63.568 286.837 67.696C285.877 71.728 284.293 75.376 282.085 78.64C279.877 81.904 276.997 84.544 273.445 86.56C269.893 88.48 265.573 89.44 260.485 89.44C255.397 89.44 251.077 88.48 247.525 86.56C243.973 84.544 241.093 81.904 238.885 78.64C236.677 75.376 235.045 71.728 233.989 67.696C233.029 63.568 232.549 59.344 232.549 55.024ZM209.941 55.024C209.941 62.512 211.093 69.52 213.397 76.048C215.701 82.48 219.013 88.096 223.333 92.896C227.653 97.696 232.933 101.488 239.173 104.272C245.509 106.96 252.613 108.304 260.485 108.304C268.453 108.304 275.557 106.96 281.797 104.272C288.037 101.488 293.317 97.696 297.637 92.896C301.957 88.096 305.269 82.48 307.573 76.048C309.877 69.52 311.029 62.512 311.029 55.024C311.029 47.344 309.877 40.24 307.573 33.712C305.269 27.088 301.957 21.328 297.637 16.432C293.317 11.536 288.037 7.696 281.797 4.912C275.557 2.128 268.453 0.735999 260.485 0.735999C252.613 0.735999 245.509 2.128 239.173 4.912C232.933 7.696 227.653 11.536 223.333 16.432C219.013 21.328 215.701 27.088 213.397 33.712C211.093 40.24 209.941 47.344 209.941 55.024ZM348.083 65.392C341.267 63.664 335.747 60.208 331.523 55.024C327.395 49.744 325.331 42.928 325.331 34.576C325.331 29.104 326.291 24.4 328.211 20.464C330.131 16.528 332.675 13.264 335.843 10.672C339.107 8.08 342.851 6.208 347.075 5.05599C351.395 3.80799 355.907 3.18399 360.611 3.18399H411.011V106H388.547V67.264H372.563L345.203 106H316.979L348.083 65.392ZM388.547 50.416V20.896H366.227C363.827 20.896 361.475 21.088 359.171 21.472C356.963 21.76 354.947 22.432 353.123 23.488C351.395 24.448 350.003 25.84 348.947 27.664C347.891 29.392 347.363 31.744 347.363 34.72C347.363 37.888 347.891 40.48 348.947 42.496C350.099 44.512 351.587 46.144 353.411 47.392C355.235 48.544 357.347 49.36 359.747 49.84C362.147 50.224 364.643 50.416 367.235 50.416H388.547ZM446.235 71.872H424.347C424.251 78.208 425.403 83.68 427.803 88.288C430.203 92.896 433.419 96.688 437.451 99.664C441.579 102.64 446.283 104.8 451.563 106.144C456.939 107.584 462.459 108.304 468.123 108.304C475.131 108.304 481.275 107.488 486.555 105.856C491.931 104.224 496.395 101.968 499.947 99.088C503.595 96.112 506.331 92.608 508.155 88.576C509.979 84.544 510.891 80.176 510.891 75.472C510.891 69.712 509.643 65.008 507.147 61.36C504.747 57.616 501.867 54.64 498.507 52.432C495.147 50.224 491.739 48.64 488.283 47.68C484.923 46.624 482.283 45.904 480.363 45.52C473.931 43.888 468.699 42.544 464.667 41.488C460.731 40.432 457.611 39.376 455.307 38.32C453.099 37.264 451.611 36.112 450.843 34.864C450.075 33.616 449.691 31.984 449.691 29.968C449.691 27.76 450.171 25.936 451.131 24.496C452.091 23.056 453.291 21.856 454.731 20.896C456.267 19.936 457.947 19.264 459.771 18.88C461.595 18.496 463.419 18.304 465.243 18.304C468.027 18.304 470.571 18.544 472.875 19.024C475.275 19.504 477.387 20.32 479.211 21.472C481.035 22.624 482.475 24.208 483.531 26.224C484.683 28.24 485.355 30.784 485.547 33.856H507.435C507.435 27.904 506.283 22.864 503.979 18.736C501.771 14.512 498.747 11.056 494.907 8.368C491.067 5.68 486.651 3.75999 481.659 2.60799C476.763 1.36 471.627 0.735999 466.251 0.735999C461.643 0.735999 457.035 1.36 452.427 2.60799C447.819 3.85599 443.691 5.77599 440.043 8.368C436.395 10.96 433.419 14.224 431.115 18.16C428.907 22 427.803 26.56 427.803 31.84C427.803 36.544 428.667 40.576 430.395 43.936C432.219 47.2 434.571 49.936 437.451 52.144C440.331 54.352 443.595 56.176 447.243 57.616C450.891 58.96 454.635 60.112 458.475 61.072C462.219 62.128 465.915 63.088 469.563 63.952C473.211 64.816 476.475 65.824 479.355 66.976C482.235 68.128 484.539 69.568 486.267 71.296C488.091 73.024 489.003 75.28 489.003 78.064C489.003 80.656 488.331 82.816 486.987 84.544C485.643 86.176 483.963 87.472 481.947 88.432C479.931 89.392 477.771 90.064 475.467 90.448C473.163 90.736 471.003 90.88 468.987 90.88C466.011 90.88 463.131 90.544 460.347 89.872C457.563 89.104 455.115 88 453.003 86.56C450.987 85.024 449.355 83.056 448.107 80.656C446.859 78.256 446.235 75.328 446.235 71.872ZM524.342 3.18399V106H546.95V72.88L559.91 59.776L590.87 106H619.238L575.174 43.792L615.35 3.18399H587.126L546.95 45.808V3.18399H524.342Z" fill="#1F2429"/>
</svg>