<svg width="329" height="96" viewBox="0 0 329 96" fill="none" xmlns="http://www.w3.org/2000/svg">
<rect width="329" height="96" fill="white"/>
<path d="M155.27 22.5048C159.686 22.5048 163.526 23.5342 166.79 25.5931C170.102 27.6029 172.622 30.495 174.35 34.2695C176.126 37.995 177.014 42.4068 177.014 47.5048C177.014 52.6029 176.126 57.0391 174.35 60.8136C172.622 64.5391 170.102 67.4313 166.79 69.4901C163.526 71.4999 159.686 72.5048 155.27 72.5048C150.854 72.5048 147.014 71.4999 143.75 69.4901C140.486 67.4313 137.966 64.5391 136.19 60.8136C134.414 57.0391 133.526 52.6029 133.526 47.5048C133.526 42.4068 134.414 37.995 136.19 34.2695C137.966 30.495 140.486 27.6029 143.75 25.5931C147.014 23.5342 150.854 22.5048 155.27 22.5048ZM155.27 24.3431C151.286 24.3431 147.806 25.2989 144.83 27.2107C141.854 29.0734 139.574 31.745 137.99 35.2254C136.406 38.7058 135.614 42.7989 135.614 47.5048C135.614 52.2107 136.406 56.3038 137.99 59.7842C139.574 63.2646 141.854 65.9607 144.83 67.8725C147.806 69.7352 151.286 70.6666 155.27 70.6666C159.254 70.6666 162.734 69.7352 165.71 67.8725C168.686 65.9607 170.966 63.2646 172.55 59.7842C174.134 56.3038 174.926 52.2107 174.926 47.5048C174.926 42.7989 174.134 38.7058 172.55 35.2254C170.966 31.745 168.686 29.0734 165.71 27.2107C162.734 25.2989 159.254 24.3431 155.27 24.3431Z" fill="black"/>
<path d="M187.746 71.7695L201.858 50.0783H218.202V71.7695H220.218V23.2401H202.866C198.162 23.2401 194.466 24.4411 191.778 26.8431C189.042 29.196 187.674 32.4558 187.674 36.6225C187.674 40.2989 188.73 43.2891 190.842 45.5931C192.906 47.897 195.81 49.3185 199.554 49.8578L185.442 71.7695H187.746ZM202.866 48.1666C198.69 48.1666 195.45 47.1617 193.146 45.1519C190.842 43.1421 189.69 40.2989 189.69 36.6225C189.69 32.995 190.842 30.1764 193.146 28.1666C195.45 26.1078 198.69 25.0783 202.866 25.0783H218.202V48.1666H202.866Z" fill="black"/>
<path d="M248.489 22.5048C257.801 22.5048 263.633 26.2058 265.985 33.6078L264.329 34.9313C263.273 31.3038 261.425 28.6323 258.785 26.9166C256.145 25.2009 252.713 24.3431 248.489 24.3431C245.465 24.3431 242.801 24.8578 240.497 25.8872C238.241 26.8676 236.489 28.2156 235.241 29.9313C234.041 31.647 233.441 33.5833 233.441 35.7401C233.441 37.7499 233.945 39.4411 234.953 40.8136C235.961 42.1862 237.665 43.3627 240.065 44.3431C242.465 45.3234 245.777 46.1813 250.001 46.9166C254.129 47.6519 257.393 48.5832 259.793 49.7107C262.241 50.7891 264.017 52.1372 265.121 53.7548C266.225 55.3725 266.777 57.3823 266.777 59.7842C266.777 62.2352 266.033 64.4411 264.545 66.4019C263.105 68.3136 261.065 69.8087 258.425 70.8872C255.785 71.9656 252.761 72.5048 249.353 72.5048C244.265 72.5048 239.993 71.4509 236.537 69.3431C233.129 67.1862 230.945 64.0734 229.985 60.0048L231.785 58.7548C232.505 62.6274 234.449 65.5931 237.617 67.6519C240.785 69.6617 244.721 70.6666 249.425 70.6666C253.889 70.6666 257.561 69.7107 260.441 67.7989C263.321 65.8382 264.761 63.1666 264.761 59.7842C264.761 56.8921 263.609 54.6127 261.305 52.946C259.001 51.2303 255.065 49.9068 249.497 48.9754C244.937 48.1911 241.337 47.2352 238.697 46.1078C236.105 44.9803 234.233 43.6078 233.081 41.9901C231.977 40.3234 231.425 38.2646 231.425 35.8136C231.425 33.4117 232.097 31.2058 233.441 29.196C234.833 27.1862 236.825 25.5685 239.417 24.3431C242.009 23.1176 245.033 22.5048 248.489 22.5048Z" fill="black"/>
<path d="M289.784 44.2695L279.56 54.8578V71.7695H277.544V23.2401H279.56V51.9901L307.208 23.2401H309.944L291.296 42.7254L310.592 71.7695H308.072L289.784 44.2695Z" fill="black"/>
<path d="M123.065 41.4019C123.065 35.5685 121.481 31.0833 118.313 27.946C115.145 24.8087 110.705 23.2401 104.993 23.2401C99.2809 23.2401 94.8409 24.8087 91.6729 27.946C88.5049 31.0833 86.9209 35.5685 86.9209 41.4019V72.5048H88.9369V41.696C88.9369 36.3529 90.3289 32.2352 93.1129 29.3431C95.8969 26.4999 99.8569 25.0784 104.993 25.0784C110.081 25.0784 114.017 26.5244 116.801 29.4166C119.633 32.3087 121.049 36.4019 121.049 41.696V72.5048H123.065V41.4019Z" fill="black"/>
<rect y="12.5048" width="70" height="70" fill="#EB5757"/>
<path d="M53 54.4406C53 60.2426 51.4223 64.7038 48.2669 67.8242C45.1116 70.9446 40.6892 72.5048 35 72.5048C29.3108 72.5048 24.8884 70.9446 21.7331 67.8242C18.5777 64.7038 17 60.2426 17 54.4406V23.5048H19.008V54.1481C19.008 59.4625 20.3944 63.5581 23.1673 66.4347C25.9402 69.2625 29.8845 70.6765 35 70.6765C40.0677 70.6765 43.988 69.2382 46.761 66.3615C49.5817 63.4849 50.992 59.4138 50.992 54.1481V23.5048H53V54.4406Z" fill="white"/>
</svg>
